<mxfile host="Electron" agent="Mozilla/5.0 (X11; Linux x86_64) AppleWebKit/537.36 (KHTML, like Gecko) draw.io/26.0.9 Chrome/128.0.6613.186 Electron/32.2.5 Safari/537.36" version="26.0.9">
  <diagram name="Page-1" id="BGdbQNy4lWMIwamYAzT9">
    <mxGraphModel dx="2045" dy="644" grid="1" gridSize="10" guides="1" tooltips="1" connect="1" arrows="1" fold="1" page="1" pageScale="1" pageWidth="850" pageHeight="1100" math="0" shadow="0">
      <root>
        <mxCell id="0" />
        <mxCell id="1" parent="0" />
        <mxCell id="rrg5Xec_erFQ0-O8DxHj-1" value="Функция" style="swimlane;fontStyle=0;childLayout=stackLayout;horizontal=1;startSize=26;fillColor=none;horizontalStack=0;resizeParent=1;resizeParentMax=0;resizeLast=0;collapsible=1;marginBottom=0;whiteSpace=wrap;html=1;" parent="1" vertex="1">
          <mxGeometry x="250" y="736" width="140" height="156" as="geometry" />
        </mxCell>
        <mxCell id="ElwwVpRvz_KkgenfZM1--7" value="+ signature: string" style="text;strokeColor=none;fillColor=none;align=left;verticalAlign=top;spacingLeft=4;spacingRight=4;overflow=hidden;rotatable=0;points=[[0,0.5],[1,0.5]];portConstraint=eastwest;whiteSpace=wrap;html=1;" vertex="1" parent="rrg5Xec_erFQ0-O8DxHj-1">
          <mxGeometry y="26" width="140" height="26" as="geometry" />
        </mxCell>
        <mxCell id="rrg5Xec_erFQ0-O8DxHj-2" value="+ description: string" style="text;strokeColor=none;fillColor=none;align=left;verticalAlign=top;spacingLeft=4;spacingRight=4;overflow=hidden;rotatable=0;points=[[0,0.5],[1,0.5]];portConstraint=eastwest;whiteSpace=wrap;html=1;" parent="rrg5Xec_erFQ0-O8DxHj-1" vertex="1">
          <mxGeometry y="52" width="140" height="26" as="geometry" />
        </mxCell>
        <mxCell id="rrg5Xec_erFQ0-O8DxHj-3" value="+ args:string" style="text;strokeColor=none;fillColor=none;align=left;verticalAlign=top;spacingLeft=4;spacingRight=4;overflow=hidden;rotatable=0;points=[[0,0.5],[1,0.5]];portConstraint=eastwest;whiteSpace=wrap;html=1;" parent="rrg5Xec_erFQ0-O8DxHj-1" vertex="1">
          <mxGeometry y="78" width="140" height="26" as="geometry" />
        </mxCell>
        <mxCell id="rrg5Xec_erFQ0-O8DxHj-17" value="+ returns: string" style="text;strokeColor=none;fillColor=none;align=left;verticalAlign=top;spacingLeft=4;spacingRight=4;overflow=hidden;rotatable=0;points=[[0,0.5],[1,0.5]];portConstraint=eastwest;whiteSpace=wrap;html=1;" parent="rrg5Xec_erFQ0-O8DxHj-1" vertex="1">
          <mxGeometry y="104" width="140" height="26" as="geometry" />
        </mxCell>
        <mxCell id="rrg5Xec_erFQ0-O8DxHj-4" value="+ raises: string" style="text;strokeColor=none;fillColor=none;align=left;verticalAlign=top;spacingLeft=4;spacingRight=4;overflow=hidden;rotatable=0;points=[[0,0.5],[1,0.5]];portConstraint=eastwest;whiteSpace=wrap;html=1;" parent="rrg5Xec_erFQ0-O8DxHj-1" vertex="1">
          <mxGeometry y="130" width="140" height="26" as="geometry" />
        </mxCell>
        <mxCell id="rrg5Xec_erFQ0-O8DxHj-5" value="Класс" style="swimlane;fontStyle=0;childLayout=stackLayout;horizontal=1;startSize=26;fillColor=none;horizontalStack=0;resizeParent=1;resizeParentMax=0;resizeLast=0;collapsible=1;marginBottom=0;whiteSpace=wrap;html=1;" parent="1" vertex="1">
          <mxGeometry x="240" y="560" width="160" height="130" as="geometry" />
        </mxCell>
        <mxCell id="ElwwVpRvz_KkgenfZM1--8" value="+ name: string" style="text;strokeColor=none;fillColor=none;align=left;verticalAlign=top;spacingLeft=4;spacingRight=4;overflow=hidden;rotatable=0;points=[[0,0.5],[1,0.5]];portConstraint=eastwest;whiteSpace=wrap;html=1;" vertex="1" parent="rrg5Xec_erFQ0-O8DxHj-5">
          <mxGeometry y="26" width="160" height="26" as="geometry" />
        </mxCell>
        <mxCell id="rrg5Xec_erFQ0-O8DxHj-6" value="+ pydoc: string" style="text;strokeColor=none;fillColor=none;align=left;verticalAlign=top;spacingLeft=4;spacingRight=4;overflow=hidden;rotatable=0;points=[[0,0.5],[1,0.5]];portConstraint=eastwest;whiteSpace=wrap;html=1;" parent="rrg5Xec_erFQ0-O8DxHj-5" vertex="1">
          <mxGeometry y="52" width="160" height="26" as="geometry" />
        </mxCell>
        <mxCell id="rrg5Xec_erFQ0-O8DxHj-7" value="+ methods: List[Функция]" style="text;strokeColor=none;fillColor=none;align=left;verticalAlign=top;spacingLeft=4;spacingRight=4;overflow=hidden;rotatable=0;points=[[0,0.5],[1,0.5]];portConstraint=eastwest;whiteSpace=wrap;html=1;" parent="rrg5Xec_erFQ0-O8DxHj-5" vertex="1">
          <mxGeometry y="78" width="160" height="26" as="geometry" />
        </mxCell>
        <mxCell id="rrg5Xec_erFQ0-O8DxHj-8" value="+ inner_classes: List[Класс]" style="text;strokeColor=none;fillColor=none;align=left;verticalAlign=top;spacingLeft=4;spacingRight=4;overflow=hidden;rotatable=0;points=[[0,0.5],[1,0.5]];portConstraint=eastwest;whiteSpace=wrap;html=1;" parent="rrg5Xec_erFQ0-O8DxHj-5" vertex="1">
          <mxGeometry y="104" width="160" height="26" as="geometry" />
        </mxCell>
        <mxCell id="ElwwVpRvz_KkgenfZM1--1" value="Документация инструмента" style="swimlane;fontStyle=0;childLayout=stackLayout;horizontal=1;startSize=26;fillColor=none;horizontalStack=0;resizeParent=1;resizeParentMax=0;resizeLast=0;collapsible=1;marginBottom=0;whiteSpace=wrap;html=1;" vertex="1" parent="1">
          <mxGeometry x="-170" y="460" width="180" height="156" as="geometry" />
        </mxCell>
        <mxCell id="ElwwVpRvz_KkgenfZM1--2" value="+ name: string" style="text;strokeColor=none;fillColor=none;align=left;verticalAlign=top;spacingLeft=4;spacingRight=4;overflow=hidden;rotatable=0;points=[[0,0.5],[1,0.5]];portConstraint=eastwest;whiteSpace=wrap;html=1;" vertex="1" parent="ElwwVpRvz_KkgenfZM1--1">
          <mxGeometry y="26" width="180" height="26" as="geometry" />
        </mxCell>
        <mxCell id="ElwwVpRvz_KkgenfZM1--4" value="+ short_desct: string" style="text;strokeColor=none;fillColor=none;align=left;verticalAlign=top;spacingLeft=4;spacingRight=4;overflow=hidden;rotatable=0;points=[[0,0.5],[1,0.5]];portConstraint=eastwest;whiteSpace=wrap;html=1;" vertex="1" parent="ElwwVpRvz_KkgenfZM1--1">
          <mxGeometry y="52" width="180" height="26" as="geometry" />
        </mxCell>
        <mxCell id="ElwwVpRvz_KkgenfZM1--6" value="+ big_descr: string" style="text;strokeColor=none;fillColor=none;align=left;verticalAlign=top;spacingLeft=4;spacingRight=4;overflow=hidden;rotatable=0;points=[[0,0.5],[1,0.5]];portConstraint=eastwest;whiteSpace=wrap;html=1;" vertex="1" parent="ElwwVpRvz_KkgenfZM1--1">
          <mxGeometry y="78" width="180" height="26" as="geometry" />
        </mxCell>
        <mxCell id="ElwwVpRvz_KkgenfZM1--5" value="+ classes: List[Класс]" style="text;strokeColor=none;fillColor=none;align=left;verticalAlign=top;spacingLeft=4;spacingRight=4;overflow=hidden;rotatable=0;points=[[0,0.5],[1,0.5]];portConstraint=eastwest;whiteSpace=wrap;html=1;" vertex="1" parent="ElwwVpRvz_KkgenfZM1--1">
          <mxGeometry y="104" width="180" height="26" as="geometry" />
        </mxCell>
        <mxCell id="ElwwVpRvz_KkgenfZM1--3" value="+ functions: List[Функция]" style="text;strokeColor=none;fillColor=none;align=left;verticalAlign=top;spacingLeft=4;spacingRight=4;overflow=hidden;rotatable=0;points=[[0,0.5],[1,0.5]];portConstraint=eastwest;whiteSpace=wrap;html=1;" vertex="1" parent="ElwwVpRvz_KkgenfZM1--1">
          <mxGeometry y="130" width="180" height="26" as="geometry" />
        </mxCell>
        <mxCell id="ElwwVpRvz_KkgenfZM1--22" value="" style="endArrow=none;html=1;edgeStyle=orthogonalEdgeStyle;rounded=0;" edge="1" parent="1" source="rrg5Xec_erFQ0-O8DxHj-5" target="ElwwVpRvz_KkgenfZM1--1">
          <mxGeometry relative="1" as="geometry">
            <mxPoint x="240" y="462" as="sourcePoint" />
            <mxPoint x="-70" y="557" as="targetPoint" />
            <Array as="points">
              <mxPoint x="60" y="590" />
              <mxPoint x="60" y="590" />
            </Array>
          </mxGeometry>
        </mxCell>
        <mxCell id="ElwwVpRvz_KkgenfZM1--23" value="*" style="edgeLabel;resizable=0;html=1;align=left;verticalAlign=bottom;labelBackgroundColor=none;" connectable="0" vertex="1" parent="ElwwVpRvz_KkgenfZM1--22">
          <mxGeometry x="-1" relative="1" as="geometry">
            <mxPoint x="-10" as="offset" />
          </mxGeometry>
        </mxCell>
        <mxCell id="ElwwVpRvz_KkgenfZM1--24" value="*" style="edgeLabel;resizable=0;html=1;align=right;verticalAlign=bottom;labelBackgroundColor=none;" connectable="0" vertex="1" parent="ElwwVpRvz_KkgenfZM1--22">
          <mxGeometry x="1" relative="1" as="geometry">
            <mxPoint x="10" as="offset" />
          </mxGeometry>
        </mxCell>
        <mxCell id="ElwwVpRvz_KkgenfZM1--25" value="" style="endArrow=none;html=1;edgeStyle=orthogonalEdgeStyle;rounded=0;" edge="1" parent="1" source="rrg5Xec_erFQ0-O8DxHj-1" target="ElwwVpRvz_KkgenfZM1--1">
          <mxGeometry relative="1" as="geometry">
            <mxPoint x="250" y="635" as="sourcePoint" />
            <mxPoint x="20" y="635" as="targetPoint" />
          </mxGeometry>
        </mxCell>
        <mxCell id="ElwwVpRvz_KkgenfZM1--26" value="*" style="edgeLabel;resizable=0;html=1;align=left;verticalAlign=bottom;labelBackgroundColor=none;" connectable="0" vertex="1" parent="ElwwVpRvz_KkgenfZM1--25">
          <mxGeometry x="-1" relative="1" as="geometry">
            <mxPoint x="-20" as="offset" />
          </mxGeometry>
        </mxCell>
        <mxCell id="ElwwVpRvz_KkgenfZM1--27" value="*&amp;nbsp;&amp;nbsp;" style="edgeLabel;resizable=0;html=1;align=right;verticalAlign=bottom;labelBackgroundColor=none;" connectable="0" vertex="1" parent="ElwwVpRvz_KkgenfZM1--25">
          <mxGeometry x="1" relative="1" as="geometry">
            <mxPoint y="17" as="offset" />
          </mxGeometry>
        </mxCell>
        <mxCell id="ElwwVpRvz_KkgenfZM1--29" value="Конструирует&amp;nbsp; документацию классов" style="text;html=1;align=center;verticalAlign=middle;whiteSpace=wrap;rounded=0;" vertex="1" parent="1">
          <mxGeometry x="105" y="550" width="60" height="30" as="geometry" />
        </mxCell>
        <mxCell id="ElwwVpRvz_KkgenfZM1--30" value="Конструирует&amp;nbsp; документацию функций" style="text;html=1;align=center;verticalAlign=middle;whiteSpace=wrap;rounded=0;" vertex="1" parent="1">
          <mxGeometry x="105" y="770" width="60" height="30" as="geometry" />
        </mxCell>
        <mxCell id="ElwwVpRvz_KkgenfZM1--32" value="" style="endArrow=diamondThin;html=1;rounded=0;edgeStyle=orthogonalEdgeStyle;endFill=0;endSize=17;" edge="1" parent="1" source="rrg5Xec_erFQ0-O8DxHj-1" target="rrg5Xec_erFQ0-O8DxHj-5">
          <mxGeometry width="50" height="50" relative="1" as="geometry">
            <mxPoint x="410" y="635" as="sourcePoint" />
            <mxPoint x="420" y="462" as="targetPoint" />
            <Array as="points">
              <mxPoint x="490" y="820" />
              <mxPoint x="490" y="670" />
            </Array>
          </mxGeometry>
        </mxCell>
        <mxCell id="ElwwVpRvz_KkgenfZM1--34" value="Библиотека/Пакет" style="swimlane;fontStyle=0;childLayout=stackLayout;horizontal=1;startSize=26;fillColor=none;horizontalStack=0;resizeParent=1;resizeParentMax=0;resizeLast=0;collapsible=1;marginBottom=0;whiteSpace=wrap;html=1;" vertex="1" parent="1">
          <mxGeometry x="230" y="400" width="180" height="104" as="geometry" />
        </mxCell>
        <mxCell id="ElwwVpRvz_KkgenfZM1--35" value="+ name: string" style="text;strokeColor=none;fillColor=none;align=left;verticalAlign=top;spacingLeft=4;spacingRight=4;overflow=hidden;rotatable=0;points=[[0,0.5],[1,0.5]];portConstraint=eastwest;whiteSpace=wrap;html=1;" vertex="1" parent="ElwwVpRvz_KkgenfZM1--34">
          <mxGeometry y="26" width="180" height="26" as="geometry" />
        </mxCell>
        <mxCell id="ElwwVpRvz_KkgenfZM1--36" value="+ pydoc: string" style="text;strokeColor=none;fillColor=none;align=left;verticalAlign=top;spacingLeft=4;spacingRight=4;overflow=hidden;rotatable=0;points=[[0,0.5],[1,0.5]];portConstraint=eastwest;whiteSpace=wrap;html=1;" vertex="1" parent="ElwwVpRvz_KkgenfZM1--34">
          <mxGeometry y="52" width="180" height="26" as="geometry" />
        </mxCell>
        <mxCell id="ElwwVpRvz_KkgenfZM1--37" value="+ modules: List[Модуль]" style="text;strokeColor=none;fillColor=none;align=left;verticalAlign=top;spacingLeft=4;spacingRight=4;overflow=hidden;rotatable=0;points=[[0,0.5],[1,0.5]];portConstraint=eastwest;whiteSpace=wrap;html=1;" vertex="1" parent="ElwwVpRvz_KkgenfZM1--34">
          <mxGeometry y="78" width="180" height="26" as="geometry" />
        </mxCell>
        <mxCell id="ElwwVpRvz_KkgenfZM1--38" value="" style="endArrow=none;html=1;edgeStyle=orthogonalEdgeStyle;rounded=0;" edge="1" parent="1" source="ElwwVpRvz_KkgenfZM1--34" target="ElwwVpRvz_KkgenfZM1--1">
          <mxGeometry relative="1" as="geometry">
            <mxPoint x="240" y="302" as="sourcePoint" />
            <mxPoint x="-70" y="470" as="targetPoint" />
            <Array as="points">
              <mxPoint x="80" y="480" />
              <mxPoint x="80" y="480" />
            </Array>
          </mxGeometry>
        </mxCell>
        <mxCell id="ElwwVpRvz_KkgenfZM1--39" value="*" style="edgeLabel;resizable=0;html=1;align=left;verticalAlign=bottom;labelBackgroundColor=none;" connectable="0" vertex="1" parent="ElwwVpRvz_KkgenfZM1--38">
          <mxGeometry x="-1" relative="1" as="geometry">
            <mxPoint x="-20" as="offset" />
          </mxGeometry>
        </mxCell>
        <mxCell id="ElwwVpRvz_KkgenfZM1--40" value="*&amp;nbsp;" style="edgeLabel;resizable=0;html=1;align=right;verticalAlign=bottom;labelBackgroundColor=none;" connectable="0" vertex="1" parent="ElwwVpRvz_KkgenfZM1--38">
          <mxGeometry x="1" relative="1" as="geometry">
            <mxPoint x="20" as="offset" />
          </mxGeometry>
        </mxCell>
        <mxCell id="ElwwVpRvz_KkgenfZM1--41" value="Конструирует большую документацию" style="text;html=1;align=center;verticalAlign=middle;whiteSpace=wrap;rounded=0;" vertex="1" parent="1">
          <mxGeometry x="105" y="437" width="60" height="30" as="geometry" />
        </mxCell>
      </root>
    </mxGraphModel>
  </diagram>
</mxfile>
